<?xml version="1.0" encoding="UTF-8"?>
<svg version="1.1" xmlns="http://www.w3.org/2000/svg" width="640" height="480">
<path d="M0 0 C3.66651781 2.76025412 6.5790805 5.36505025 9.23046875 9.1328125 C8.30363281 10.04804688 7.37679687 10.96328125 6.421875 11.90625 C5.21210836 13.1066386 4.0024801 14.30716667 2.79296875 15.5078125 C1.87547852 16.41273438 1.87547852 16.41273438 0.93945312 17.3359375 C0.06450195 18.20605469 0.06450195 18.20605469 -0.828125 19.09375 C-1.36751709 19.62790527 -1.90690918 20.16206055 -2.46264648 20.71240234 C-3.87800102 22.11933638 -3.87800102 22.11933638 -4.76953125 24.1328125 C-8.01101326 23.53438505 -9.82077345 22.48727908 -12.33203125 20.3828125 C-24.36303852 11.08002621 -37.97555398 9.00766814 -52.76953125 10.1328125 C-67.06152033 12.13841002 -78.48835954 19.6168222 -87.7734375 30.4765625 C-98.27510252 44.44854016 -100.46841039 60.60412354 -98.34375 77.5234375 C-95.25782987 91.68459246 -87.43663332 103.50736517 -75.48046875 111.49609375 C-61.57963251 119.88867356 -46.43425326 122.54209373 -30.51953125 119.0078125 C-19.37759021 115.76817203 -8.92691664 110.3077287 -2.08203125 100.6953125 C1.2068122 94.20651325 3.06061285 87.07635139 5.23046875 80.1328125 C-11.59953125 80.1328125 -28.42953125 80.1328125 -45.76953125 80.1328125 C-45.76953125 72.5428125 -45.76953125 64.9528125 -45.76953125 57.1328125 C-21.67953125 57.1328125 2.41046875 57.1328125 27.23046875 57.1328125 C32.29077372 72.3137274 27.99334412 92.5205158 21.41796875 106.5703125 C15.15872856 118.1766423 6.53867877 127.39281977 -4.76953125 134.1328125 C-5.506875 134.57625 -6.24421875 135.0196875 -7.00390625 135.4765625 C-24.25965307 144.97301377 -47.01148011 146.13791171 -65.95703125 141.6328125 C-77.47872413 137.88063864 -88.76391287 132.31335473 -97.76953125 124.1328125 C-98.50300781 123.49085938 -99.23648438 122.84890625 -99.9921875 122.1875 C-114.77218254 108.44692143 -123.65957983 88.64838729 -124.9296875 68.60546875 C-125.62898775 45.95422149 -117.25207778 26.88937621 -102.015625 10.4453125 C-75.27870392 -17.08209146 -31.94753895 -21.53867929 0 0 Z " fill="#4285F4" transform="translate(137.76953125,151.8671875)"/>
<path d="M0 0 C0.33 -1.98 0.66 -3.96 1 -6 C8.26 -6 15.52 -6 23 -6 C23.09075238 6.89242228 23.16397522 19.7846287 23.20724869 32.6772995 C23.22802887 38.66535919 23.25616994 44.65318699 23.30175781 50.64111328 C23.34555896 56.43129217 23.36920886 62.2212495 23.37950897 68.01158142 C23.38683928 70.20893333 23.40115162 72.40627458 23.42292023 74.60353088 C23.57285371 90.38007056 23.49747931 106.56386016 14 120 C13.58234375 120.60972656 13.1646875 121.21945312 12.734375 121.84765625 C6.41925065 130.10449987 -2.99705296 134.86037071 -13 137 C-16.67994602 137.38540424 -20.30273383 137.4216042 -24 137.375 C-24.92039062 137.38660156 -25.84078125 137.39820313 -26.7890625 137.41015625 C-39.77515921 137.35528542 -50.35352238 132.65855333 -59.75 123.75 C-63.90277654 119.39032357 -67.67574729 114.59841739 -70 109 C-69 106 -69 106 -67.37353516 105.00097656 C-66.68565918 104.71706055 -65.9977832 104.43314453 -65.2890625 104.140625 C-64.53882813 103.82996094 -63.78859375 103.51929688 -63.015625 103.19921875 C-62.22671875 102.88597656 -61.4378125 102.57273437 -60.625 102.25 C-59.84382813 101.92128906 -59.06265625 101.59257812 -58.2578125 101.25390625 C-52.38645632 98.87118123 -52.38645632 98.87118123 -49 100 C-47.74609375 101.85546875 -47.74609375 101.85546875 -46.4375 104.1875 C-42.66502146 110.10086012 -37.24087691 113.96672207 -30.38671875 115.63671875 C-23.53857813 116.67907076 -18.69094079 115.39171165 -12.35546875 112.875 C-10 112 -10 112 -8 112 C-8 111.34 -8 110.68 -8 110 C-7.401875 109.4225 -6.80375 108.845 -6.1875 108.25 C-0.76620059 102.67380633 0.13704966 96.70496626 0.0625 89.25 C0.05347656 88.07953125 0.04445313 86.9090625 0.03515625 85.703125 C0.02355469 84.81109375 0.01195312 83.9190625 0 83 C-0.78375 83.7425 -1.5675 84.485 -2.375 85.25 C-11.99446414 93.01191245 -23.14124546 93.2159414 -35 92 C-46.93820755 89.60100229 -58.07666743 81.93220706 -65 72 C-73.46858655 57.40591408 -76.70675853 43.34310518 -72.4375 26.6875 C-68.11361306 13.38323249 -59.66551902 2.9392794 -47.5 -3.9375 C-31.80328648 -11.78585676 -13.93991927 -11.4053885 0 0 Z M-45.54296875 22.88671875 C-50.98183297 31.00514071 -52.25983416 40.01268452 -50.53515625 49.578125 C-48.52404872 57.33695404 -44.82939091 63.35710986 -38.125 67.875 C-31.2488192 71.73714329 -24.71938601 72.87586478 -17 71 C-7.85269768 67.52863167 -2.96216175 62.47769438 1.06640625 53.66796875 C3.73258382 46.04872489 4.04044682 36.55252542 1 29 C-3.38136244 20.75272952 -8.90416274 14.88034847 -18 12 C-28.81548697 10.70780598 -38.56772075 14.35749145 -45.54296875 22.88671875 Z " fill="#4185F4" transform="translate(465,203)"/>
<path d="M0 0 C13.75898981 10.80814047 20.1048535 22.59301893 22.3828125 39.91015625 C22.92311538 51.85084999 19.11413501 64.46293495 12 74 C11.48695313 74.70511719 10.97390625 75.41023438 10.4453125 76.13671875 C3.45112927 84.92127903 -6.9716352 91.01205441 -18 93 C-21.54364891 93.30316932 -25.06926353 93.40536797 -28.625 93.4375 C-29.49560059 93.44773193 -30.36620117 93.45796387 -31.26318359 93.46850586 C-44.31041833 93.29252448 -56.61391301 87.93221226 -66.15625 79.03515625 C-76.4733827 67.64696528 -80.47656656 53.98968893 -80.2109375 38.91796875 C-79.45782864 24.92966895 -73.76674352 13.78727274 -63.64453125 4.2265625 C-46.00992785 -10.62088793 -19.51557561 -12.86253847 0 0 Z M-42 16 C-42.60585937 16.31710938 -43.21171875 16.63421875 -43.8359375 16.9609375 C-50.36004642 20.97796526 -53.64170387 27.54251895 -56.375 34.5 C-58.2460452 44.97785312 -56.19865955 53.04387533 -51.1875 62.375 C-45.80606773 68.83271872 -39.34742799 71.92220297 -31 73 C-21.68912388 72.83352201 -14.75518809 69.76561613 -8.21875 63.21484375 C-3.13912864 57.15166825 -1.44013595 50.1812915 -0.625 42.4375 C-1.62607718 33.26095919 -4.83039778 24.77373178 -11.734375 18.3984375 C-20.66423942 11.64177018 -32.07147246 10.80336643 -42 16 Z " fill="#EA4234" transform="translate(252,202)"/>
<path d="M0 0 C0.89912109 0.72123047 0.89912109 0.72123047 1.81640625 1.45703125 C2.86828125 2.22015625 3.92015625 2.98328125 5.00390625 3.76953125 C14.08371224 12.44579031 19.33553999 24.6997168 20.01953125 37.15625 C20.20887554 53.26629361 16.53748034 66.24662585 5.203125 78.19921875 C-6.76084357 89.51701554 -20.04746281 91.95466444 -35.890625 91.734375 C-48.89035281 91.27410632 -60.49761297 85.03535034 -69.3671875 75.6640625 C-79.27962905 63.61991309 -82.43990549 50.17047778 -82.10546875 34.88671875 C-80.50998901 20.77019147 -72.82919823 8.58965495 -61.99609375 -0.34765625 C-44.03694566 -13.23975899 -17.77371543 -13.32185502 0 0 Z M-54.18359375 23.45703125 C-59.23262178 30.91405726 -59.60084165 40.75761096 -58.18359375 49.45703125 C-55.21799766 58.80442247 -50.30721778 64.75548404 -41.74609375 69.26953125 C-33.33394536 72.07358071 -26.43487728 71.90390419 -18.18359375 68.45703125 C-10.41169773 63.20833983 -5.07409097 56.77202662 -3.18359375 47.45703125 C-2.25021991 37.15931661 -3.82210262 28.151579 -10.49609375 20.01953125 C-15.31854988 14.96940552 -20.65657943 11.82256657 -27.69921875 11.25390625 C-39.46675116 11.05217712 -46.28679115 14.52778449 -54.18359375 23.45703125 Z " fill="#FBBB04" transform="translate(363.18359375,203.54296875)"/>
<path d="M0 0 C9.74639907 7.13908212 17.35886327 16.98242113 20.453125 28.796875 C20.36621094 30.7668457 20.36621094 30.7668457 19.453125 32.796875 C16.89404297 34.23803711 16.89404297 34.23803711 13.4453125 35.57421875 C12.81985535 35.82215179 12.19439819 36.07008484 11.54998779 36.32553101 C9.48124563 37.14251657 7.40492662 37.93812657 5.328125 38.734375 C3.15896679 39.58517152 0.9920297 40.44146221 -1.17483521 41.29808044 C-2.67420342 41.89046407 -4.17427725 42.48106456 -5.67501831 43.06996155 C-14.50886456 46.54410027 -23.23949441 50.26114884 -31.97125244 53.98287964 C-33.878044 54.79490432 -35.78654558 55.60278859 -37.6953125 56.41015625 C-38.77989746 56.87204346 -39.86448242 57.33393066 -40.98193359 57.80981445 C-43.546875 58.796875 -43.546875 58.796875 -45.546875 58.796875 C-40.63443796 65.97391068 -36.60927036 70.36882736 -27.796875 72.171875 C-18.62843403 73.41851098 -11.97233606 71.80258323 -4.46484375 66.39453125 C-2.11343304 64.4358205 -0.2605724 62.33016682 1.453125 59.796875 C6.00876561 61.38220309 9.76788269 63.78690581 13.765625 66.421875 C14.41080078 66.84210938 15.05597656 67.26234375 15.72070312 67.6953125 C17.30073224 68.72525741 18.87728547 69.76053128 20.453125 70.796875 C15.39106379 81.55375507 5.55364013 87.99700777 -5.3203125 92.0703125 C-17.3478488 95.9950875 -31.94338299 95.23152329 -43.53125 90.34375 C-57.43031712 83.21417671 -65.40562181 73.27365858 -70.69140625 58.625 C-73.42647618 46.3858743 -73.23854555 31.09183612 -67.546875 19.796875 C-66.89332031 18.48396484 -66.89332031 18.48396484 -66.2265625 17.14453125 C-60.12987685 6.06721989 -51.34942437 -1.35270425 -39.484375 -5.515625 C-25.46009608 -9.51791342 -12.22361149 -7.76468403 0 0 Z M-41.546875 20.796875 C-46.3501604 25.93813144 -49.4063323 31.0022221 -49.671875 38.171875 C-49.630625 39.038125 -49.589375 39.904375 -49.546875 40.796875 C-40.58900675 38.05550235 -32.08239816 34.29686746 -23.484375 30.609375 C-21.93568501 29.94824403 -20.38685798 29.28743398 -18.83789062 28.62695312 C-15.07262757 27.02062505 -11.30924905 25.40995747 -7.546875 23.796875 C-7.21697441 20.60424208 -7.21697441 20.60424208 -9.796875 18.234375 C-19.88430036 9.29324797 -32.04755912 12.82517553 -41.546875 20.796875 Z " fill="#EA4234" transform="translate(605.546875,201.203125)"/>
<path d="M0 0 C7.59 0 15.18 0 23 0 C23 49.17 23 98.34 23 149 C15.41 149 7.82 149 0 149 C0 99.83 0 50.66 0 0 Z " fill="#34A753" transform="translate(502,144)"/>
</svg>
